<svg width="107" height="32" viewBox="0 0 107 32" fill="none" xmlns="http://www.w3.org/2000/svg">
<path d="M32.1865 31.0375V0.5H35.5315V31.0375H32.1865Z" fill="white"/>
<path d="M49.4501 31.3864C47.1904 31.3864 45.2131 30.892 43.5183 29.9032C41.8236 28.8853 40.5004 27.5184 39.549 25.8025C38.6272 24.0865 38.1664 22.1961 38.1664 20.1312C38.1664 18.0372 38.6124 16.1468 39.5044 14.46C40.3964 12.7441 41.6749 11.3917 43.3399 10.4029C45.005 9.38495 46.9674 8.87599 49.2271 8.87599C51.5165 8.87599 53.4789 9.38495 55.1142 10.4029C56.7793 11.3917 58.0578 12.7441 58.9498 14.46C59.8418 16.1468 60.2878 18.0372 60.2878 20.1312V21.44H41.6005C41.7789 22.7196 42.1952 23.8975 42.8493 24.9736C43.5332 26.0206 44.4401 26.864 45.5699 27.5038C46.6998 28.1146 48.008 28.42 49.4947 28.42C51.0705 28.42 52.3937 28.0855 53.4641 27.4166C54.5344 26.7186 55.367 25.8315 55.9616 24.7555H59.6188C58.8457 26.704 57.6118 28.3036 55.917 29.5542C54.252 30.7757 52.0963 31.3864 49.4501 31.3864ZM41.6451 18.3862H56.809C56.5117 16.5249 55.7089 14.9689 54.4006 13.7184C53.0924 12.4678 51.3679 11.8425 49.2271 11.8425C47.0863 11.8425 45.3618 12.4678 44.0535 13.7184C42.775 14.9689 41.9722 16.5249 41.6451 18.3862Z" fill="white"/>
<path d="M72.0015 31.3864C69.831 31.3864 67.9281 30.892 66.2927 29.9032C64.6871 28.8853 63.4384 27.5184 62.5464 25.8025C61.6544 24.0865 61.2084 22.1961 61.2084 20.1312C61.2084 18.0372 61.6544 16.1468 62.5464 14.46C63.4384 12.7441 64.6871 11.3917 66.2927 10.4029C67.9281 9.38495 69.831 8.87599 72.0015 8.87599C73.8449 8.87599 75.4208 9.22499 76.729 9.92298C78.067 10.621 79.1523 11.5662 79.9848 12.7586V9.22499H83.3298V31.0375H79.9848V27.5475C79.1523 28.7108 78.067 29.6414 76.729 30.3394C75.4208 31.0374 73.8449 31.3864 72.0015 31.3864ZM72.4475 28.42C74.1125 28.42 75.51 28.0419 76.6398 27.2857C77.7994 26.5295 78.6766 25.5262 79.2712 24.2756C79.8659 22.9959 80.1632 21.6145 80.1632 20.1312C80.1632 18.6189 79.8659 17.2374 79.2712 15.9868C78.6766 14.7363 77.7994 13.7329 76.6398 12.9767C75.51 12.2206 74.1125 11.8425 72.4475 11.8425C70.8122 11.8425 69.3998 12.2206 68.2105 12.9767C67.0212 13.7329 66.1143 14.7363 65.4899 15.9868C64.8655 17.2374 64.5533 18.6189 64.5533 20.1312C64.5533 21.6145 64.8655 22.9959 65.4899 24.2756C66.1143 25.5262 67.0212 26.5295 68.2105 27.2857C69.3998 28.0419 70.8122 28.42 72.4475 28.42Z" fill="white"/>
<path d="M87.3316 31.0375V9.22499H90.6765V12.6277C91.4793 11.5807 92.4605 10.6937 93.6201 9.96661C94.7797 9.23953 96.2664 8.87599 98.0801 8.87599C99.6262 8.87599 101.068 9.23953 102.406 9.96661C103.774 10.6646 104.874 11.7262 105.707 13.1512C106.569 14.5472 107 16.2777 107 18.3426V31.0375H103.655V18.4298C103.655 16.4522 103.075 14.8671 101.916 13.6747C100.756 12.4532 99.2545 11.8425 97.4111 11.8425C96.1623 11.8425 95.0324 12.1188 94.0215 12.6714C93.0106 13.2239 92.1929 14.0092 91.5685 15.0271C90.9739 16.0159 90.6765 17.1647 90.6765 18.4735V31.0375H87.3316Z" fill="white"/>
<path d="M15.031 30.932C12.028 30.932 9.44119 30.2776 7.27067 28.9688C5.12989 27.631 3.4797 25.8424 2.32011 23.603C1.16052 21.3636 0.580724 18.8769 0.580724 16.1431C0.580724 13.4093 1.17539 10.9227 2.36471 8.68326C3.55403 6.44384 5.23395 4.66976 7.40447 3.36101C9.60472 2.02318 12.1766 1.35427 15.1202 1.35427C18.3017 1.35427 21.052 2.12497 23.3711 3.66639C25.7201 5.17872 27.4446 7.14184 28.5447 9.55575H24.8875C23.9955 8.01434 22.7467 6.79284 21.1412 5.89126C19.5653 4.98968 17.6475 4.53889 15.3878 4.53889C13.0092 4.53889 10.9576 5.06239 9.23306 6.10938C7.50854 7.1273 6.18541 8.50876 5.26369 10.2538C4.37169 11.9988 3.9257 13.9619 3.9257 16.1431C3.9257 18.2953 4.37169 20.2584 5.26369 22.0325C6.15568 23.7775 7.44907 25.1735 9.14386 26.2205C10.8684 27.2384 12.92 27.7473 15.2986 27.7473C17.0826 27.7473 18.7625 27.3693 20.3384 26.6131C21.944 25.8569 23.2373 24.7663 24.2185 23.3412C25.2295 21.9161 25.7349 20.2002 25.7349 18.1935H14.9418V15.227H28.8123V30.583H25.7349V25.4789C25.1105 26.4095 24.3077 27.2966 23.3265 28.14C22.3454 28.9543 21.156 29.6232 19.7586 30.1467C18.3909 30.6702 16.815 30.932 15.031 30.932Z" fill="white"/>
<path fill-rule="evenodd" clip-rule="evenodd" d="M6.96196 29.45L6.95802 29.4475C4.72876 28.0544 3.00807 26.1887 1.80205 23.8596C0.597678 21.5337 0 18.958 0 16.1431C0 13.3259 0.613572 10.7483 1.84937 8.4214C3.08634 6.09228 4.83822 4.24131 7.09879 2.87804C9.40292 1.4773 12.0838 0.786235 15.1202 0.786235C18.4003 0.786235 21.2667 1.58202 23.694 3.19422C26.1298 4.76336 27.9285 6.8085 29.0751 9.32447L29.4394 10.1238H24.5489L24.3822 9.83556C23.5426 8.38483 22.3695 7.23597 20.852 6.38389L20.85 6.38274L20.848 6.38158C19.3799 5.54169 17.5688 5.10692 15.3878 5.10692C13.0985 5.10692 11.1571 5.60984 9.53931 6.59201L9.53621 6.59389L9.5331 6.59573C7.90128 7.55892 6.65361 8.8613 5.78139 10.5111C4.9354 12.1675 4.50642 14.041 4.50642 16.1431C4.50642 18.2155 4.93513 20.0912 5.78395 21.7801C6.62741 23.4294 7.84625 24.7458 9.44893 25.7371C11.0667 26.6906 13.0088 27.1793 15.2986 27.1793C16.9954 27.1793 18.5877 26.8205 20.0826 26.1031L20.0845 26.1022L20.0864 26.1013C21.6006 25.3882 22.8141 24.3641 23.7369 23.0239L23.7391 23.0207L23.7414 23.0174C24.5807 21.8343 25.0529 20.4226 25.1396 18.7615H14.3611V14.659H29.393V31.151H25.1542V27.1577C24.7212 27.6418 24.2395 28.1114 23.7099 28.5667L23.7061 28.5699L23.7023 28.5731C22.6642 29.4347 21.4163 30.1338 19.9683 30.6764C18.5208 31.2301 16.8715 31.5 15.031 31.5C11.9397 31.5 9.24327 30.8255 6.96594 29.4524L6.96196 29.45ZM19.7586 30.1467C21.156 29.6232 22.3454 28.9543 23.3265 28.14C24.0266 27.5382 24.6358 26.9143 25.1542 26.2682C25.3624 26.0086 25.556 25.7455 25.7349 25.4789V30.583H28.8123V15.227H14.9418V18.1935H25.7349C25.7349 18.3855 25.7303 18.5748 25.721 18.7615C25.6336 20.5259 25.1327 22.0525 24.2185 23.3412C23.2373 24.7663 21.944 25.8569 20.3384 26.6131C18.7625 27.3693 17.0826 27.7473 15.2986 27.7473C12.92 27.7473 10.8684 27.2384 9.14386 26.2205C7.44907 25.1735 6.15568 23.7775 5.26369 22.0325C4.37169 20.2584 3.9257 18.2953 3.9257 16.1431C3.9257 13.9619 4.37169 11.9988 5.26369 10.2538C6.18541 8.50876 7.50854 7.1273 9.23306 6.10938C10.9576 5.06239 13.0092 4.53889 15.3878 4.53889C17.6475 4.53889 19.5653 4.98968 21.1412 5.89126C22.7467 6.79284 23.9955 8.01434 24.8875 9.55575H28.5447C28.4571 9.36355 28.3656 9.17421 28.27 8.98772C27.166 6.83208 25.533 5.0583 23.3711 3.66639C21.052 2.12497 18.3017 1.35427 15.1202 1.35427C12.1766 1.35427 9.60472 2.02318 7.40447 3.36101C5.23395 4.66976 3.55403 6.44384 2.36471 8.68326C1.17539 10.9227 0.580724 13.4093 0.580724 16.1431C0.580724 18.8769 1.16052 21.3636 2.32011 23.603C3.4797 25.8424 5.12989 27.631 7.27067 28.9688C9.44119 30.2776 12.028 30.932 15.031 30.932C16.815 30.932 18.3909 30.6702 19.7586 30.1467Z" fill="white"/>
</svg>
